<?xml version="1.0" encoding="UTF-8"?> <svg xmlns="http://www.w3.org/2000/svg" width="187" height="32" viewBox="0 0 187 32" fill="none"><g clip-path="url(#clip0)"><path fill-rule="evenodd" clip-rule="evenodd" d="M122.367 11.3859C122.367 11.6856 122.606 11.9852 122.966 11.9852C125.363 11.9852 127.28 11.9852 129.618 11.9852C131.535 11.9852 133.093 10.4271 133.093 8.50954V7.79044C133.093 5.75299 131.415 4.01516 129.318 4.01516C127.28 4.01516 125.722 4.01516 123.685 4.01516C122.966 4.01516 122.367 4.61441 122.367 5.33351V11.3859ZM72.5688 13.2436V24.0301C72.5688 24.2698 72.3891 24.4496 72.1494 24.4496H68.3741C68.1344 24.4496 67.9546 24.2698 67.9546 24.0301V14.0826C67.9546 12.4047 66.5763 11.0264 64.8984 11.0264H61.3029C60.5838 11.0264 59.9846 11.6256 59.9846 12.3447C59.9846 16.2399 59.9846 20.0751 59.9846 23.9702C59.9846 24.2099 59.8048 24.3897 59.5651 24.3897H55.7898C55.5501 24.3897 55.3703 24.2099 55.3703 23.9702V11.3859C55.3703 9.34849 57.0482 7.67059 59.0857 7.67059C61.3628 7.67059 63.9396 7.67059 66.2168 7.67059C69.3928 7.67059 72.5688 9.82789 72.5688 13.2436ZM41.0482 17.3185H46.7411C47.1007 17.3185 47.3404 17.6182 47.3404 17.9178V18.6369C47.3404 19.9552 46.2617 21.0339 44.9434 21.0339H40.5688C39.67 21.0339 38.9509 20.3148 38.9509 19.4159C38.9509 18.2773 39.9097 17.3185 41.0482 17.3185ZM35.8348 7.67059C39.1906 7.67059 42.4864 7.67059 45.8422 7.67059C49.258 7.67059 52.0145 10.2474 52.0145 13.4234V20.4346C52.0145 22.6519 50.1568 24.4496 47.9995 24.4496H39.1306C36.3741 24.4496 34.0969 22.1725 34.0969 19.4159C34.0969 16.6594 36.3741 14.3822 39.1306 14.3822H46.801C47.1606 14.3822 47.4003 14.0226 47.4003 13.723C47.4003 12.2249 46.2018 11.0264 44.7037 11.0264H35.8348C35.5951 11.0264 35.4153 10.8466 35.4153 10.6069V8.09006C35.4153 7.85036 35.5951 7.67059 35.8348 7.67059ZM14.6213 2.03763C13.0033 7.31104 11.3853 12.5245 9.82726 17.7979C9.76734 18.0376 9.46771 17.9777 9.40779 17.7979L4.73363 0.359727C4.6737 0.179952 4.49393 0.120027 4.31415 0.120027H0.419023C0.179323 0.120027 -0.0603773 0.359727 -0.000452215 0.599427L5.51266 21.2736C5.99206 23.0713 7.55011 24.3897 9.52764 24.3897C11.3853 24.3897 13.0033 23.1912 13.4827 21.4534L17.258 9.16872C17.3179 9.04887 17.4977 9.04887 17.5576 9.16872L21.3329 21.4534C21.8722 23.1313 23.4303 24.3897 25.2879 24.3897C27.1456 24.3897 28.7037 23.1313 29.243 21.4534L34.816 0.599427C34.816 0.539502 34.816 0.539502 34.816 0.479577C34.816 0.239877 34.6363 0.0601017 34.3966 0.0601017H30.5014C30.3216 0.0601017 30.1419 0.179952 30.0819 0.359727L25.4078 17.7979C25.3479 17.9777 25.0482 18.0376 24.9883 17.7979L20.1943 2.03763C19.2954 -0.778849 15.4003 -0.539149 14.6213 2.03763ZM102.831 17.3185H108.524C108.883 17.3185 109.123 17.6182 109.123 17.9178V18.6369C109.123 19.9552 108.044 21.0339 106.726 21.0339H102.352C101.453 21.0339 100.734 20.3148 100.734 19.4159C100.734 18.2773 101.692 17.3185 102.831 17.3185ZM97.6175 7.67059C100.973 7.67059 104.269 7.67059 107.625 7.67059C111.041 7.67059 113.797 10.2474 113.797 13.4234V20.4346C113.797 22.6519 111.94 24.4496 109.782 24.4496H100.913C98.1568 24.4496 95.8797 22.1725 95.8797 19.4159C95.8797 16.6594 98.1568 14.3822 100.913 14.3822H108.584C108.943 14.3822 109.183 14.0226 109.183 13.723C109.183 12.2249 107.985 11.0264 106.486 11.0264H97.6175C97.3778 11.0264 97.198 10.8466 97.198 10.6069V8.09006C97.198 7.85036 97.3778 7.67059 97.6175 7.67059ZM93.1831 13.2436V24.0301C93.1831 24.2698 93.0033 24.4496 92.7636 24.4496H88.9883C88.7486 24.4496 88.5688 24.2698 88.5688 24.0301V14.0826C88.5688 12.4047 87.1906 11.0264 85.5127 11.0264H81.9171C81.198 11.0264 80.5988 11.6256 80.5988 12.3447C80.5988 16.2399 80.5988 20.0751 80.5988 23.9702C80.5988 24.2099 80.419 24.3897 80.1793 24.3897H76.404C76.1643 24.3897 75.9846 24.2099 75.9846 23.9702V11.3859C75.9846 9.34849 77.6625 7.67059 79.6999 7.67059C81.9771 7.67059 84.5539 7.67059 86.831 7.67059C89.9471 7.67059 93.1831 9.82789 93.1831 13.2436ZM182.172 7.67059H186.427C186.666 7.67059 186.846 7.85036 186.846 8.14999C186.846 8.20991 186.846 8.32976 186.786 8.38969L174.322 31.7605C174.262 31.8803 174.082 32.0002 173.962 32.0002H169.707C169.468 32.0002 169.288 31.7605 169.288 31.5208C169.288 31.4608 169.288 31.4009 169.348 31.2811L174.202 22.1725C171.745 17.5582 169.288 12.8841 166.831 8.26984C166.771 8.20991 166.771 8.14999 166.771 8.03014C166.771 7.79044 166.951 7.55074 167.191 7.55074H171.445C171.625 7.55074 171.745 7.67059 171.805 7.79044L176.659 16.8391C176.719 16.8991 176.779 16.959 176.838 16.959C176.898 16.959 176.958 16.8991 177.018 16.8391L181.872 7.73051C181.872 7.79044 181.992 7.67059 182.172 7.67059ZM154.906 17.3185H160.599C160.958 17.3185 161.198 17.6182 161.198 17.9178V18.6369C161.198 19.9552 160.119 21.0339 158.801 21.0339H154.427C153.528 21.0339 152.809 20.3148 152.809 19.4159C152.809 18.2773 153.767 17.3185 154.906 17.3185ZM149.692 7.67059C153.048 7.67059 156.344 7.67059 159.7 7.67059C163.116 7.67059 165.872 10.2474 165.872 13.4234V20.4346C165.872 22.6519 164.015 24.4496 161.857 24.4496H152.988C150.232 24.4496 147.955 22.1725 147.955 19.4159C147.955 16.6594 150.232 14.3822 152.988 14.3822H160.659C161.018 14.3822 161.258 14.0226 161.258 13.723C161.258 12.2249 160.059 11.0264 158.561 11.0264H149.692C149.453 11.0264 149.273 10.8466 149.273 10.6069V8.09006C149.273 7.85036 149.453 7.67059 149.692 7.67059ZM141.063 0.120027H144.838C145.078 0.120027 145.258 0.299802 145.258 0.539502V24.0301C145.258 24.2698 145.078 24.4496 144.838 24.4496H141.063C140.824 24.4496 140.644 24.2698 140.644 24.0301V0.539502C140.644 0.299802 140.824 0.120027 141.063 0.120027ZM122.127 0.120027H128.239H130.456C134.531 0.120027 137.887 3.47583 137.887 7.55074V8.98894C137.887 12.7642 134.771 15.8803 130.996 15.8803H122.307V23.9702C122.307 24.2099 122.127 24.4496 121.827 24.4496H117.872C117.633 24.4496 117.393 24.2698 117.393 23.9702C117.393 17.2586 117.393 10.4871 117.393 3.77546C117.393 1.738 119.071 0.0601017 121.108 0.0601017C121.528 0.120027 121.767 0.120027 122.127 0.120027Z" fill="black"></path><path fill-rule="evenodd" clip-rule="evenodd" d="M173.124 2.0376H175.221C175.341 2.0376 175.461 2.15745 175.461 2.2773C175.461 2.81662 175.88 3.2361 176.419 3.2361H177.198C177.738 3.2361 178.157 2.81662 178.157 2.2773C178.157 2.15745 178.277 2.0376 178.397 2.0376H180.494C180.734 2.0376 180.914 2.21737 180.914 2.45707V2.81662C180.914 4.37468 179.595 5.69303 178.037 5.69303H175.581C174.022 5.69303 172.704 4.37468 172.704 2.81662V2.45707C172.704 2.21737 172.884 2.0376 173.124 2.0376Z" fill="#E20613"></path></g><defs><clipPath id="clip0"><rect width="186.846" height="32" fill="white"></rect></clipPath></defs></svg> 